<?xml version="1.0" standalone="no"?>
<!DOCTYPE svg PUBLIC "-//W3C//DTD SVG 20010904//EN"
 "http://www.w3.org/TR/2001/REC-SVG-20010904/DTD/svg10.dtd">
<svg version="1.0" xmlns="http://www.w3.org/2000/svg"
 width="120.000000pt" height="120.000000pt" viewBox="0 0 120.000000 120.000000"
 preserveAspectRatio="xMidYMid meet">
<metadata>
Created by potrace 1.14, written by Peter Selinger 2001-2017
</metadata>
<g transform="translate(0.000000,120.000000) scale(0.100000,-0.100000)"
fill="#000000" stroke="none">
<path d="M495 1186 c-141 -45 -234 -144 -271 -286 -32 -126 -3 -229 121 -416
41 -63 87 -138 101 -167 28 -55 37 -128 16 -135 -15 -5 -15 -27 1 -52 10 -17
9 -22 -1 -29 -23 -14 -10 -46 21 -49 15 -2 27 -7 27 -12 0 -12 64 -40 92 -40
29 0 131 67 125 83 -2 7 3 17 11 23 13 9 13 14 -2 36 -15 23 -15 27 -1 41 15
15 11 47 -5 47 -25 0 29 109 120 245 37 55 76 118 87 140 66 128 65 277 -1
390 -27 46 -113 135 -130 135 -5 0 -17 7 -26 15 -40 37 -210 55 -285 31z"/>
</g>
</svg>
